<svg xmlns="http://www.w3.org/2000/svg" width="1600" height="900" viewBox="0 0 1600 900">
  <defs>
    <linearGradient id="bg" x1="0" y1="0" x2="1" y2="1">
      <stop offset="0" stop-color="#0f172a"/>
      <stop offset="1" stop-color="#38bdf8"/>
    </linearGradient>
  </defs>
  <rect width="1600" height="900" fill="url(#bg)"/>
  <path d="M0 620 C300 520 520 710 820 590 C1120 470 1280 610 1600 540 L1600 900 L0 900 Z" fill="#0b132b" opacity="0.72"/>
  <g fill="#f8fafc" opacity="0.92">
    <rect x="470" y="380" width="120" height="280" opacity="0.65"/>
    <rect x="610" y="320" width="160" height="340" opacity="0.8"/>
    <rect x="800" y="360" width="130" height="300" opacity="0.7"/>
    <rect x="950" y="410" width="110" height="250" opacity="0.6"/>
    <g opacity="0.35">
      <rect x="640" y="360" width="24" height="24"/>
      <rect x="685" y="360" width="24" height="24"/>
      <rect x="730" y="360" width="24" height="24"/>
      <rect x="640" y="405" width="24" height="24"/>
      <rect x="685" y="405" width="24" height="24"/>
      <rect x="730" y="405" width="24" height="24"/>
    </g>
  </g>
  <text x="80" y="120" font-family="Montserrat, Arial, sans-serif" font-size="54" fill="#f8fafc" opacity="0.95">Flavio Tours</text>
  <text x="80" y="185" font-family="Playfair Display, Georgia, serif" font-size="72" fill="#f8fafc" opacity="0.95">City Highlights</text>
</svg>
