<svg xmlns="http://www.w3.org/2000/svg" width="1600" height="900" viewBox="0 0 1600 900">
  <defs>
    <linearGradient id="bg" x1="0" y1="0" x2="1" y2="1">
      <stop offset="0" stop-color="#0b132b"/>
      <stop offset="1" stop-color="#0ea5e9"/>
    </linearGradient>
  </defs>
  <rect width="1600" height="900" fill="url(#bg)"/>
  <path d="M0 560 C320 430 520 650 860 540 C1180 438 1320 560 1600 500 L1600 900 L0 900 Z" fill="#0f172a" opacity="0.7"/>
  <g transform="translate(520 300)" fill="none" stroke="#f8fafc" stroke-width="18" opacity="0.9">
    <ellipse cx="280" cy="220" rx="280" ry="140"/>
    <path d="M40 220 c0-95 110-170 240-170 s240 75 240 170"/>
    <path d="M80 220 c0-70 92-125 200-125 s200 55 200 125" opacity="0.8"/>
    <path d="M120 220 c0-48 74-86 160-86 s160 38 160 86" opacity="0.7"/>
    <path d="M70 220 v180"/>
    <path d="M160 220 v180"/>
    <path d="M260 220 v180"/>
    <path d="M360 220 v180"/>
    <path d="M450 220 v180"/>
    <path d="M10 400 h540"/>
  </g>
  <text x="80" y="120" font-family="Montserrat, Arial, sans-serif" font-size="54" fill="#f8fafc" opacity="0.95">Flavio Tours</text>
  <text x="80" y="185" font-family="Playfair Display, Georgia, serif" font-size="72" fill="#f8fafc" opacity="0.95">Colosseum</text>
</svg>
