<svg xmlns="http://www.w3.org/2000/svg" width="1600" height="900" viewBox="0 0 1600 900">
  <defs>
    <linearGradient id="bg" x1="0" y1="0" x2="1" y2="1">
      <stop offset="0" stop-color="#0f172a"/>
      <stop offset="1" stop-color="#0ea5e9"/>
    </linearGradient>
  </defs>
  <rect width="1600" height="900" fill="url(#bg)"/>
  <circle cx="1220" cy="220" r="120" fill="#f8fafc" opacity="0.18"/>
  <path d="M0 640 C320 540 540 740 860 620 C1180 510 1340 660 1600 590 L1600 900 L0 900 Z" fill="#0b132b" opacity="0.72"/>
  <path d="M0 720 C360 620 560 820 900 700 C1220 590 1400 740 1600 680 L1600 900 L0 900 Z" fill="#0b132b" opacity="0.5"/>
  <g transform="translate(520 410)" fill="none" stroke="#f8fafc" stroke-width="16" opacity="0.9">
    <path d="M0 160 C140 40 300 260 440 120"/>
    <path d="M520 160 C660 40 820 260 960 120" opacity="0.75"/>
  </g>
  <text x="80" y="120" font-family="Montserrat, Arial, sans-serif" font-size="54" fill="#f8fafc" opacity="0.95">Flavio Tours</text>
  <text x="80" y="185" font-family="Playfair Display, Georgia, serif" font-size="72" fill="#f8fafc" opacity="0.95">Day Trips</text>
</svg>
