<svg xmlns="http://www.w3.org/2000/svg" width="1600" height="900" viewBox="0 0 1600 900">
  <defs>
    <linearGradient id="bg" x1="0" y1="0" x2="1" y2="1">
      <stop offset="0" stop-color="#0b132b"/>
      <stop offset="1" stop-color="#0f172a"/>
    </linearGradient>
  </defs>
  <rect width="1600" height="900" fill="url(#bg)"/>
  <circle cx="1220" cy="220" r="110" fill="#f8fafc" opacity="0.18"/>
  <g fill="#f8fafc" opacity="0.16">
    <circle cx="260" cy="220" r="6"/>
    <circle cx="420" cy="160" r="4"/>
    <circle cx="520" cy="260" r="5"/>
    <circle cx="760" cy="180" r="4"/>
    <circle cx="920" cy="260" r="5"/>
    <circle cx="1040" cy="140" r="4"/>
  </g>
  <path d="M0 640 C320 540 540 740 860 620 C1180 510 1340 660 1600 590 L1600 900 L0 900 Z" fill="#0f172a" opacity="0.72"/>
  <g transform="translate(520 420)" fill="#f8fafc" opacity="0.78">
    <rect x="0" y="120" width="140" height="160" opacity="0.35"/>
    <rect x="170" y="60" width="200" height="220" opacity="0.45"/>
    <rect x="400" y="100" width="160" height="180" opacity="0.38"/>
    <rect x="590" y="140" width="120" height="140" opacity="0.3"/>
  </g>
  <text x="80" y="120" font-family="Montserrat, Arial, sans-serif" font-size="54" fill="#f8fafc" opacity="0.95">Flavio Tours</text>
  <text x="80" y="185" font-family="Playfair Display, Georgia, serif" font-size="72" fill="#f8fafc" opacity="0.95">Rome at Night</text>
</svg>
