<svg xmlns="http://www.w3.org/2000/svg" width="1600" height="900" viewBox="0 0 1600 900">
  <defs>
    <linearGradient id="bg" x1="0" y1="0" x2="1" y2="1">
      <stop offset="0" stop-color="#0f172a"/>
      <stop offset="1" stop-color="#0b132b"/>
    </linearGradient>
  </defs>
  <rect width="1600" height="900" fill="url(#bg)"/>
  <path d="M0 540 C320 460 520 600 860 520 C1180 440 1340 560 1600 500 L1600 900 L0 900 Z" fill="#0b132b" opacity="0.65"/>
  <g transform="translate(360 380)" fill="none" stroke="#f8fafc" stroke-width="16" opacity="0.85">
    <path d="M0 220 C120 120 240 320 360 220 C480 120 600 320 720 220 C840 120 960 320 1080 220"/>
    <path d="M0 300 C120 200 240 400 360 300 C480 200 600 400 720 300 C840 200 960 400 1080 300" opacity="0.7"/>
  </g>
  <text x="80" y="120" font-family="Montserrat, Arial, sans-serif" font-size="54" fill="#f8fafc" opacity="0.95">Flavio Tours</text>
  <text x="80" y="185" font-family="Playfair Display, Georgia, serif" font-size="72" fill="#f8fafc" opacity="0.95">Underground</text>
</svg>
