<svg xmlns="http://www.w3.org/2000/svg" width="1600" height="900" viewBox="0 0 1600 900">
  <defs>
    <linearGradient id="bg" x1="0" y1="0" x2="1" y2="1">
      <stop offset="0" stop-color="#0f172a"/>
      <stop offset="1" stop-color="#0ea5e9"/>
    </linearGradient>
    <linearGradient id="glow" x1="0" y1="0" x2="0" y2="1">
      <stop offset="0" stop-color="#ffffff" stop-opacity="0.18"/>
      <stop offset="1" stop-color="#ffffff" stop-opacity="0"/>
    </linearGradient>
  </defs>
  <rect width="1600" height="900" fill="url(#bg)"/>
  <path d="M0 520 C260 420 420 620 760 520 C1050 434 1210 560 1600 470 L1600 900 L0 900 Z" fill="#0b132b" opacity="0.65"/>
  <circle cx="1220" cy="230" r="140" fill="url(#glow)"/>
  <g fill="#f8fafc" opacity="0.92">
    <path d="M520 610 h560 v70 H520 Z" opacity="0.75"/>
    <path d="M610 610 v-110 c0-95 77-172 172-172 s172 77 172 172 v110" fill="none" stroke="#f8fafc" stroke-width="22"/>
    <path d="M660 610 v-80 c0-68 55-123 123-123 s123 55 123 123 v80" fill="none" stroke="#f8fafc" stroke-width="16" opacity="0.85"/>
    <path d="M760 330 v-70 h80 v70" opacity="0.8"/>
  </g>
  <text x="80" y="120" font-family="Montserrat, Arial, sans-serif" font-size="54" fill="#f8fafc" opacity="0.95">Flavio Tours</text>
  <text x="80" y="185" font-family="Playfair Display, Georgia, serif" font-size="72" fill="#f8fafc" opacity="0.95">Vatican</text>
</svg>
